<svg width="23" height="33" viewBox="0 0 23 33" fill="none" xmlns="http://www.w3.org/2000/svg">
<path d="M3 33C2.175 33 1.46875 32.7063 0.88125 32.1188C0.29375 31.5313 0 30.825 0 30V3C0 2.175 0.29375 1.46875 0.88125 0.88125C1.46875 0.29375 2.175 0 3 0H18C18.825 0 19.5312 0.29375 20.1187 0.88125C20.7062 1.46875 21 2.175 21 3V7.65C21.45 7.825 21.8125 8.1 22.0875 8.475C22.3625 8.85 22.5 9.275 22.5 9.75V12.75C22.5 13.225 22.3625 13.65 22.0875 14.025C21.8125 14.4 21.45 14.675 21 14.85V30C21 30.825 20.7062 31.5313 20.1187 32.1188C19.5312 32.7063 18.825 33 18 33H3V33M3 30H18V30V30V3V3V3H3V3V3V30V30V30V30M3 30V30V30V3V3V3V3V3V3V30V30V30V30V30M6 22.5H15C15.425 22.5 15.7813 22.3563 16.0688 22.0688C16.3563 21.7813 16.5 21.425 16.5 21V18C16.075 18 15.7187 17.8563 15.4312 17.5688C15.1437 17.2813 15 16.925 15 16.5C15 16.075 15.1437 15.7187 15.4312 15.4312C15.7187 15.1437 16.075 15 16.5 15V12C16.5 11.575 16.3563 11.2187 16.0688 10.9312C15.7813 10.6437 15.425 10.5 15 10.5H6C5.575 10.5 5.21875 10.6437 4.93125 10.9312C4.64375 11.2187 4.5 11.575 4.5 12V15C4.925 15 5.28125 15.1437 5.56875 15.4312C5.85625 15.7187 6 16.075 6 16.5C6 16.925 5.85625 17.2813 5.56875 17.5688C5.28125 17.8563 4.925 18 4.5 18V21C4.5 21.425 4.64375 21.7813 4.93125 22.0688C5.21875 22.3563 5.575 22.5 6 22.5V22.5M10.5 20.25C10.3 20.25 10.125 20.175 9.975 20.025C9.825 19.875 9.75 19.7 9.75 19.5C9.75 19.3 9.825 19.125 9.975 18.975C10.125 18.825 10.3 18.75 10.5 18.75C10.7 18.75 10.875 18.825 11.025 18.975C11.175 19.125 11.25 19.3 11.25 19.5C11.25 19.7 11.175 19.875 11.025 20.025C10.875 20.175 10.7 20.25 10.5 20.25V20.25M10.5 17.25C10.3 17.25 10.125 17.175 9.975 17.025C9.825 16.875 9.75 16.7 9.75 16.5C9.75 16.3 9.825 16.125 9.975 15.975C10.125 15.825 10.3 15.75 10.5 15.75C10.7 15.75 10.875 15.825 11.025 15.975C11.175 16.125 11.25 16.3 11.25 16.5C11.25 16.7 11.175 16.875 11.025 17.025C10.875 17.175 10.7 17.25 10.5 17.25V17.25M10.5 14.25C10.3 14.25 10.125 14.175 9.975 14.025C9.825 13.875 9.75 13.7 9.75 13.5C9.75 13.3 9.825 13.125 9.975 12.975C10.125 12.825 10.3 12.75 10.5 12.75C10.7 12.75 10.875 12.825 11.025 12.975C11.175 13.125 11.25 13.3 11.25 13.5C11.25 13.7 11.175 13.875 11.025 14.025C10.875 14.175 10.7 14.25 10.5 14.25V14.25" fill="#A95B5C"/>
</svg>
